<?xml version="1.0" encoding="UTF-8"?>
<svg width="719px" height="60px" viewBox="0 0 719 60" version="1.1" xmlns="http://www.w3.org/2000/svg" xmlns:xlink="http://www.w3.org/1999/xlink">
    <!-- Generator: Sketch 46.2 (44496) - http://www.bohemiancoding.com/sketch -->
    <title>cf-logo-v</title>
    <desc>Created with Sketch.</desc>
    <defs></defs>
    <g id="Page-1" stroke="none" stroke-width="1" fill="none" fill-rule="evenodd">
        <g id="cf-logo-v" fill-rule="nonzero" fill="#404041">
            <path d="M712.6,14.9 C709.2,14.9 706.5,12.2 706.5,8.8 C706.5,5.5 709.2,2.7 712.6,2.7 C715.9,2.7 718.7,5.4 718.7,8.8 C718.7,12.1 715.9,14.9 712.6,14.9 L712.6,14.9 Z M712.6,3.9 C709.9,3.9 707.7,6.1 707.7,8.8 C707.7,11.5 709.9,13.7 712.6,13.7 C715.3,13.7 717.5,11.5 717.5,8.8 C717.5,6.1 715.3,3.9 712.6,3.9 L712.6,3.9 Z M715.7,12 L714.3,12 L713.1,9.7 L711.5,9.7 L711.5,12 L710.2,12 L710.2,5.3 L713.4,5.3 C714.8,5.3 715.7,6.2 715.7,7.5 C715.7,8.5 715.1,9.2 714.3,9.5 L715.7,12 Z M713.3,8.5 C713.8,8.5 714.3,8.2 714.3,7.5 C714.3,6.7 713.9,6.5 713.3,6.5 L711.3,6.5 L711.3,8.5 L713.3,8.5 L713.3,8.5 Z" id="Shape"></path>
            <polygon id="Shape" points="77.1 2.1 92.7 2.1 92.7 44.6 119.8 44.6 119.8 58.2 77.1 58.2"></polygon>
            <path d="M135.9,30.3 L135.9,30.1 C135.9,14 148.9,0.9 166.2,0.9 C183.5,0.9 196.3,13.8 196.3,29.9 L196.3,30.1 C196.3,46.2 183.3,59.3 166,59.3 C148.7,59.3 135.9,46.4 135.9,30.3 M180.5,30.3 L180.5,30.1 C180.5,22 174.7,15 166.1,15 C157.6,15 151.9,21.9 151.9,30 L151.9,30.2 C151.9,38.3 157.7,45.3 166.2,45.3 C174.8,45.3 180.5,38.4 180.5,30.3" id="Shape"></path>
            <path d="M215.4,33.6 L215.4,2.1 L231.2,2.1 L231.2,33.3 C231.2,41.4 235.3,45.2 241.5,45.2 C247.7,45.2 251.8,41.5 251.8,33.7 L251.8,2.1 L267.6,2.1 L267.6,33.2 C267.6,51.3 257.3,59.2 241.3,59.2 C225.4,59.2 215.4,51.2 215.4,33.6" id="Shape"></path>
            <path d="M291.4,2.1 L313,2.1 C333,2.1 344.7,13.6 344.7,29.8 L344.7,30 C344.7,46.2 332.9,58.2 312.7,58.2 L291.4,58.2 L291.4,2.1 L291.4,2.1 Z M313.3,44.4 C322.6,44.4 328.8,39.3 328.8,30.2 L328.8,30 C328.8,21 322.6,15.8 313.3,15.8 L307,15.8 L307,44.3 L313.3,44.3 L313.3,44.4 Z" id="Shape"></path>
            <polygon id="Shape" points="367.3 2.1 412.2 2.1 412.2 15.7 382.8 15.7 382.8 25.3 409.4 25.3 409.4 38.2 382.8 38.2 382.8 58.2 367.3 58.2"></polygon>
            <polygon id="Shape" points="433.8 2.1 449.3 2.1 449.3 44.6 476.5 44.6 476.5 58.2 433.8 58.2"></polygon>
            <path d="M517.1,1.7 L532.1,1.7 L556,58.2 L539.3,58.2 L535.2,48.2 L513.6,48.2 L509.6,58.2 L493.3,58.2 L517.1,1.7 Z M530.8,36.1 L524.6,20.2 L518.3,36.1 L530.8,36.1 Z" id="Shape"></path>
            <path d="M576,2.1 L602.5,2.1 C611.1,2.1 617,4.3 620.8,8.2 C624.1,11.4 625.8,15.7 625.8,21.3 L625.8,21.5 C625.8,30.1 621.2,35.8 614.3,38.7 L627.7,58.3 L609.7,58.3 L598.4,41.3 L591.6,41.3 L591.6,58.3 L576,58.3 L576,2.1 L576,2.1 Z M601.8,29 C607.1,29 610.1,26.4 610.1,22.4 L610.1,22.2 C610.1,17.8 606.9,15.6 601.7,15.6 L591.5,15.6 L591.5,29 L601.8,29 L601.8,29 Z" id="Shape"></path>
            <polygon id="Shape" points="648.2 2.1 693.3 2.1 693.3 15.3 663.6 15.3 663.6 23.8 690.5 23.8 690.5 36.1 663.6 36.1 663.6 45 693.7 45 693.7 58.2 648.2 58.2"></polygon>
            <path d="M43.1,36.9 C40.9,41.8 36.3,45.3 30.3,45.3 C21.8,45.3 16,38.2 16,30.2 L16,30 C16,21.9 21.7,15 30.2,15 C36.6,15 41.5,18.9 43.5,24.3 L59.9,24.3 C57.3,10.9 45.5,1 30.3,1 C13,1 0,14.1 0,30.2 L0,30.4 C0,46.5 12.8,59.4 30.1,59.4 C44.9,59.4 56.5,49.8 59.5,37 L43.1,36.9 L43.1,36.9 Z" id="Shape"></path>
        </g>
    </g>
</svg>